# xmcd
#
# Track frame offsets:
#	150
#	14628
#	29076
#	44310
#	57671
#	70851
#	86076
#	101540
#	115877
#	132260
#	148713
#	162729
#	175304
#	192118
#	205971
#	220302
#	233706
#	246557
#	261654
#	273849
#
# Disc length: 3858 seconds
#
# Revision: 0
# Processed by: cddbd v1.5.1PL0 Copyright (c) Steve Scherf et al.
# Submitted via: dBpowerAMP V4.0
#
DISCID=410f1014
DTITLE=Various Greek - Xrysh Diskothiki 1956
DYEAR=1956
DGENRE=
TTITLE0=stelios kazantzidhs, manwlhs xiwths - thessalonikh mou
TTITLE1=grhgorhs mpithikotshs, kaith glerh - mou spasane ton mpaglama
TTITLE2=kaith grey - gia koita kosme
TTITLE3=d. roumeliwths, giwrgos mitsakhs - opou giwrgos kai malama
TTITLE4=panos gavalas - tha vrw moyrmoyrh mpaglama
TTITLE5=stelios kazantzidhs - aspro poukamiso forw
TTITLE6=manwlhs kanaridhs - otan laveis auto to gramma
TTITLE7=odysseas mosxonas - o kaspourhs
TTITLE8=marianna xatzopoulou - den metaniwnw pou s'agaphsa poly
TTITLE9=nikos gounarhs - pou na sai twra agaphmenh
TTITLE10=fwths polymerhs - to vespaki to koritsi kmoy kai egw
TTITLE11=marianna xatzopoulou - na zhsoun ta ftwxopaida
TTITLE12=mairh lw - to mikro to amaksaki
TTITLE13=trio mpelkanto - mesa sto nero ths limnhs
TTITLE14=marianna xatzopoulou - allos s'agaphse ki allos se pairnei
TTITLE15=sofia vempo, tro kitara - h pio omorfh agaph einai h dikia mas
TTITLE16=kaith mpelinta - to tango ths athinas
TTITLE17=magia melagia - skotwse me
TTITLE18=fwths polymerhs - na xa ta neiata soy
TTITLE19=kaith mpelinta - h syneidhsh
EXTD=xrysh diskothikh 1956
EXTT0=
EXTT1=
EXTT2=
EXTT3=
EXTT4=
EXTT5=
EXTT6=
EXTT7=
EXTT8=
EXTT9=
EXTT10=
EXTT11=
EXTT12=
EXTT13=
EXTT14=
EXTT15=
EXTT16=
EXTT17=
EXTT18=
EXTT19=
PLAYORDER=
